<svg width="111" height="30" viewBox="0 0 111 30" fill="none" xmlns="http://www.w3.org/2000/svg">
<path d="M95.5977 15.0353L111 30V0L95.5977 15.0353Z" fill="#0061A2"/>
<path d="M95.5979 15.0352L80.2676 29.9999H111L95.5979 15.0352Z" fill="#3397D3"/>
<path d="M95.5979 15.0353L80.2676 0H111L95.5979 15.0353Z" fill="white"/>
<path d="M67.1789 25.1294L62.6955 18.9176L58.1398 25.1294H50.4023L59.0076 14.8235L50.9808 5.01172H58.646L62.6955 10.6588L66.6727 5.01172H74.4102L66.3111 14.8235L74.9164 25.1294H67.1789Z" fill="white"/>
<path d="M30.1543 25.0588V21.247L40.712 9.38819H30.6605V5.01172H48.811V8.82348L38.2533 20.6823H48.811V25.0588H30.1543Z" fill="white"/>
<path d="M21.3324 25.0588L12.5825 14.9647V25.0588H5.78516V5.01172H11.7148L20.4646 15.1058V5.01172H27.262V25.0588H21.3324Z" fill="white"/>
</svg>
