<svg width="94" height="94" viewBox="0 0 94 94" fill="none" xmlns="http://www.w3.org/2000/svg">
<path d="M47 0.125C37.729 0.125 28.6662 2.87417 20.9576 8.02486C13.2491 13.1756 7.241 20.4964 3.69315 29.0617C0.145288 37.627 -0.782994 47.052 1.02569 56.1449C2.83437 65.2377 7.29878 73.59 13.8544 80.1456C20.41 86.7012 28.7623 91.1656 37.8551 92.9743C46.948 94.783 56.373 93.8547 64.9383 90.3068C73.5036 86.759 80.8244 80.7509 85.9751 73.0423C91.1258 65.3338 93.875 56.271 93.875 47C93.875 34.568 88.9364 22.6451 80.1456 13.8544C71.3549 5.0636 59.432 0.125 47 0.125ZM49.0094 28.9187C53.2704 28.9237 57.3554 30.6186 60.3684 33.6316C63.3814 36.6446 65.0763 40.7296 65.0812 44.9906H61.0625C61.0592 41.795 59.7882 38.7311 57.5286 36.4714C55.2689 34.2117 52.205 32.9408 49.0094 32.9375V28.9187ZM62.025 75.125C61.9031 75.125 49.8375 74.9187 34.3219 59.6781C19.0812 44.1687 18.875 32.0969 18.875 31.975C18.875 30.4719 28.25 18.875 30.3219 18.875C31.0406 18.875 31.6 19.3625 32.2125 20.0937C33.6875 21.85 40.2094 32.1437 39.9094 33.8594C39.7656 34.6656 39.0812 35.2781 37.1187 36.925C36.1517 37.6852 35.2468 38.5212 34.4125 39.425C34.812 41.0787 35.4058 42.6794 36.1812 44.1937C39.0704 50.1342 43.8707 54.9323 49.8125 57.8187C51.3268 58.5942 52.9275 59.1879 54.5812 59.5875C55.4851 58.7532 56.3211 57.8482 57.0812 56.8812C58.7281 54.9187 59.3406 54.2344 60.1469 54.0906C61.8625 53.7781 72.1562 60.3125 73.9125 61.7875C74.6437 62.4125 75.1312 62.9594 75.1312 63.6781C75.125 65.75 63.5281 75.125 62.025 75.125ZM71.1062 44.9906C71.0996 39.1322 68.7694 33.5156 64.6269 29.3731C60.4844 25.2305 54.8678 22.9004 49.0094 22.8937V18.875C55.9331 18.8833 62.5709 21.6374 67.4668 26.5332C72.3626 31.4291 75.1167 38.0669 75.125 44.9906H71.1062Z" fill="url(#paint0_linear_67_839)"/>
<defs>
<linearGradient id="paint0_linear_67_839" x1="0.124976" y1="47" x2="93.875" y2="47" gradientUnits="userSpaceOnUse">
<stop stop-color="#B60B0B"/>
<stop offset="1" stop-color="#FF3838"/>
</linearGradient>
</defs>
</svg>
