<svg width="32" height="32" viewBox="0 0 32 32" fill="none" xmlns="http://www.w3.org/2000/svg">
<path d="M28.6736 15.2553C27.9846 15.1578 27.3581 15.6358 27.2621 16.3193L26.1006 24.5893C25.9681 25.5303 25.5666 28.3928 20.7906 28.3928H11.2096C6.43358 28.3928 6.03108 25.5298 5.89908 24.5893L4.73758 16.3193C4.64158 15.6358 4.01308 15.1578 3.32608 15.2553C2.64258 15.3513 2.16608 15.9833 2.26208 16.6673L3.42358 24.9368C3.96308 28.7778 6.72808 30.8928 11.2096 30.8928H20.7906C25.2721 30.8928 28.0371 28.7778 28.5761 24.9368L29.7376 16.6673C29.8336 15.9833 29.3571 15.3513 28.6736 15.2553Z" fill="white"/>
<path d="M30.5715 10.6784H26.805C26.289 5.31493 21.7595 1.10693 16.2635 1.10693H15.737C10.2405 1.10693 5.7115 5.31493 5.195 10.6784H1.4285C0.737997 10.6784 0.178497 11.2379 0.178497 11.9284C0.178497 12.6189 0.737997 13.1784 1.4285 13.1784H30.5715C31.262 13.1784 31.8215 12.6189 31.8215 11.9284C31.8215 11.2379 31.262 10.6784 30.5715 10.6784ZM15.737 3.60693H16.2635C20.3795 3.60693 23.78 6.69743 24.2855 10.6784H7.715C8.22 6.69743 11.621 3.60693 15.737 3.60693Z" fill="white"/>
<path d="M10.429 25.651C9.82901 25.651 9.29951 25.218 9.19751 24.6065L8.33651 19.4405C8.22301 18.7595 8.68301 18.1155 9.36401 18.002C10.046 17.887 10.689 18.3485 10.8025 19.0295L11.6635 24.1955C11.777 24.8765 11.317 25.5205 10.636 25.634C10.5665 25.646 10.497 25.651 10.429 25.651Z" fill="white"/>
<path d="M21.571 25.6509C21.5025 25.6509 21.434 25.6454 21.364 25.6339C20.683 25.5204 20.223 24.8764 20.3365 24.1954L21.198 19.0294C21.312 18.3489 21.954 17.8869 22.6365 18.0019C23.3175 18.1154 23.7775 18.7594 23.664 19.4404L22.8025 24.6064C22.7005 25.2179 22.171 25.6509 21.571 25.6509Z" fill="white"/>
<path d="M16 25.6509C15.3095 25.6509 14.75 25.0914 14.75 24.4009V19.2349C14.75 18.5444 15.3095 17.9849 16 17.9849C16.6905 17.9849 17.25 18.5444 17.25 19.2349V24.4009C17.25 25.0914 16.6905 25.6509 16 25.6509Z" fill="white"/>
</svg>
