<svg width="22" height="22" viewBox="0 0 22 22" fill="none" xmlns="http://www.w3.org/2000/svg">
<path d="M4.95 17.6002C5.37274 17.1267 7.35262 14.948 7.93284 14.948H14.0675C14.9083 14.948 16.6246 16.754 17.05 17.3906M19.8 11.0002C19.8 15.8603 15.8601 19.8002 11 19.8002C6.13989 19.8002 2.2 15.8603 2.2 11.0002C2.2 6.14009 6.13989 2.2002 11 2.2002C15.8601 2.2002 19.8 6.14009 19.8 11.0002ZM14.1523 8.00082C14.1523 6.32194 12.735 4.9502 11.0003 4.9502C9.26558 4.9502 7.84826 6.32194 7.84826 8.00082C7.84826 9.67971 9.26558 11.0515 11.0003 11.0515C12.7349 11.0515 14.1523 9.67971 14.1523 8.00082Z" stroke="white" stroke-width="1.5"/>
</svg>
